<svg width="67" height="33" viewBox="0 0 67 33" fill="none" xmlns="http://www.w3.org/2000/svg">
<path d="M2.66669 27.1667H5.33335C6.06669 27.1667 6.66669 26.5667 6.66669 25.8334V13.8334C6.66669 13.1 6.06669 12.5 5.33335 12.5H2.66669V27.1667ZM29.1067 17.6734C29.2534 17.34 29.3334 16.98 29.3334 16.6067V15.1667C29.3334 13.7 28.1334 12.5 26.6667 12.5H19.3334L20.56 6.30002C20.6267 6.00669 20.5867 5.68669 20.4534 5.42002C20.1467 4.82002 19.76 4.27335 19.28 3.79335L18.6667 3.16669L10.12 11.7134C9.61335 12.22 9.33335 12.9 9.33335 13.6067V24.06C9.33335 25.7667 10.7334 27.1667 12.4534 27.1667H23.2667C24.2 27.1667 25.08 26.6734 25.56 25.8734L29.1067 17.6734Z" fill="#959298"/>
<path d="M48.3984 20.3125V21.5H40.9531V20.4609L44.6797 16.3125C45.138 15.8021 45.4922 15.3698 45.7422 15.0156C45.9974 14.6562 46.1745 14.3359 46.2734 14.0547C46.3776 13.7682 46.4297 13.4766 46.4297 13.1797C46.4297 12.8047 46.3516 12.4661 46.1953 12.1641C46.0443 11.8568 45.8203 11.612 45.5234 11.4297C45.2266 11.2474 44.8672 11.1562 44.4453 11.1562C43.9401 11.1562 43.5182 11.2552 43.1797 11.4531C42.8464 11.6458 42.5964 11.9167 42.4297 12.2656C42.263 12.6146 42.1797 13.0156 42.1797 13.4688H40.7344C40.7344 12.8281 40.875 12.2422 41.1562 11.7109C41.4375 11.1797 41.8542 10.7578 42.4062 10.4453C42.9583 10.1276 43.638 9.96875 44.4453 9.96875C45.1641 9.96875 45.7786 10.0964 46.2891 10.3516C46.7995 10.6016 47.1901 10.9557 47.4609 11.4141C47.737 11.8672 47.875 12.3984 47.875 13.0078C47.875 13.3411 47.8177 13.6797 47.7031 14.0234C47.5938 14.362 47.4401 14.7005 47.2422 15.0391C47.0495 15.3776 46.8229 15.7109 46.5625 16.0391C46.3073 16.3672 46.0339 16.6901 45.7422 17.0078L42.6953 20.3125H48.3984ZM51.7734 16.0859L50.6172 15.7891L51.1875 10.125H57.0234V11.4609H52.4141L52.0703 14.5547C52.2786 14.4349 52.5417 14.3229 52.8594 14.2188C53.1823 14.1146 53.5521 14.0625 53.9688 14.0625C54.4948 14.0625 54.9661 14.1536 55.3828 14.3359C55.7995 14.513 56.1536 14.7682 56.4453 15.1016C56.7422 15.4349 56.9688 15.8359 57.125 16.3047C57.2812 16.7734 57.3594 17.2969 57.3594 17.875C57.3594 18.4219 57.2839 18.9245 57.1328 19.3828C56.987 19.8411 56.7656 20.2422 56.4688 20.5859C56.1719 20.9245 55.7969 21.1875 55.3438 21.375C54.8958 21.5625 54.3672 21.6562 53.7578 21.6562C53.2995 21.6562 52.8646 21.5938 52.4531 21.4688C52.0469 21.3385 51.6823 21.1432 51.3594 20.8828C51.0417 20.6172 50.7812 20.2891 50.5781 19.8984C50.3802 19.5026 50.2552 19.0391 50.2031 18.5078H51.5781C51.6406 18.9349 51.7656 19.2943 51.9531 19.5859C52.1406 19.8776 52.3854 20.099 52.6875 20.25C52.9948 20.3958 53.3516 20.4688 53.7578 20.4688C54.1016 20.4688 54.4062 20.4089 54.6719 20.2891C54.9375 20.1693 55.1615 19.9974 55.3438 19.7734C55.526 19.5495 55.6641 19.2786 55.7578 18.9609C55.8568 18.6432 55.9062 18.2865 55.9062 17.8906C55.9062 17.5312 55.8568 17.1979 55.7578 16.8906C55.6589 16.5833 55.5104 16.3151 55.3125 16.0859C55.1198 15.8568 54.8828 15.6797 54.6016 15.5547C54.3203 15.4245 53.9974 15.3594 53.6328 15.3594C53.1484 15.3594 52.7812 15.4245 52.5312 15.5547C52.2865 15.6849 52.0339 15.862 51.7734 16.0859ZM66.6328 17.6719V18.8594H58.4141V18.0078L63.5078 10.125H64.6875L63.4219 12.4062L60.0547 17.6719H66.6328ZM65.0469 10.125V21.5H63.6016V10.125H65.0469Z" fill="#4F4F4F"/>
</svg>
